<svg width="669" height="269" viewBox="0 0 669 269" fill="none" xmlns="http://www.w3.org/2000/svg">
<path fill-rule="evenodd" clip-rule="evenodd" d="M36 45H669V44H36V45ZM36 92H669V91H36V92ZM36 139H669V138H36V139ZM669 187H36V186H669V187Z" fill="#6F7A9F" fill-opacity="0.15"/>
<path d="M5.05664 95H3.9668V87.7754L1.78125 88.5781V87.5938L4.88672 86.4277H5.05664V95ZM8.73047 90.7227L9.16406 86.4688H13.5352V87.4707H10.084L9.82617 89.7969C10.2441 89.5508 10.7188 89.4277 11.25 89.4277C12.0273 89.4277 12.6445 89.6855 13.1016 90.2012C13.5586 90.7129 13.7871 91.4062 13.7871 92.2812C13.7871 93.1602 13.5488 93.8535 13.0723 94.3613C12.5996 94.8652 11.9375 95.1172 11.0859 95.1172C10.332 95.1172 9.7168 94.9082 9.24023 94.4902C8.76367 94.0723 8.49219 93.4941 8.42578 92.7559H9.45117C9.51758 93.2441 9.69141 93.6133 9.97266 93.8633C10.2539 94.1094 10.625 94.2324 11.0859 94.2324C11.5898 94.2324 11.9844 94.0605 12.2695 93.7168C12.5586 93.373 12.7031 92.8984 12.7031 92.293C12.7031 91.7227 12.5469 91.2656 12.2344 90.9219C11.9258 90.5742 11.5137 90.4004 10.998 90.4004C10.5254 90.4004 10.1543 90.5039 9.88477 90.7109L9.59766 90.9453L8.73047 90.7227ZM20.3203 91.3613C20.3203 92.6309 20.1035 93.5742 19.6699 94.1914C19.2363 94.8086 18.5586 95.1172 17.6367 95.1172C16.7266 95.1172 16.0527 94.8164 15.6152 94.2148C15.1777 93.6094 14.9512 92.707 14.9355 91.5078V90.0605C14.9355 88.8066 15.1523 87.875 15.5859 87.2656C16.0195 86.6562 16.6992 86.3516 17.625 86.3516C18.543 86.3516 19.2188 86.6465 19.6523 87.2363C20.0859 87.8223 20.3086 88.7285 20.3203 89.9551V91.3613ZM19.2363 89.8789C19.2363 88.9609 19.1074 88.293 18.8496 87.875C18.5918 87.4531 18.1836 87.2422 17.625 87.2422C17.0703 87.2422 16.666 87.4512 16.4121 87.8691C16.1582 88.2871 16.0273 88.9297 16.0195 89.7969V91.5312C16.0195 92.4531 16.1523 93.1348 16.418 93.5762C16.6875 94.0137 17.0938 94.2324 17.6367 94.2324C18.1719 94.2324 18.5684 94.0254 18.8262 93.6113C19.0879 93.1973 19.2246 92.5449 19.2363 91.6543V89.8789Z" fill="#6F7A9F" fill-opacity="0.7"/>
<path d="M7.08398 48H1.49414V47.2207L4.44727 43.9395C4.88477 43.4434 5.18555 43.041 5.34961 42.7324C5.51758 42.4199 5.60156 42.0977 5.60156 41.7656C5.60156 41.3203 5.4668 40.9551 5.19727 40.6699C4.92773 40.3848 4.56836 40.2422 4.11914 40.2422C3.58008 40.2422 3.16016 40.3965 2.85938 40.7051C2.5625 41.0098 2.41406 41.4355 2.41406 41.9824H1.33008C1.33008 41.1973 1.58203 40.5625 2.08594 40.0781C2.59375 39.5938 3.27148 39.3516 4.11914 39.3516C4.91211 39.3516 5.53906 39.5605 6 39.9785C6.46094 40.3926 6.69141 40.9453 6.69141 41.6367C6.69141 42.4766 6.15625 43.4766 5.08594 44.6367L2.80078 47.1152H7.08398V48ZM13.582 44.3613C13.582 45.6309 13.3652 46.5742 12.9316 47.1914C12.498 47.8086 11.8203 48.1172 10.8984 48.1172C9.98828 48.1172 9.31445 47.8164 8.87695 47.2148C8.43945 46.6094 8.21289 45.707 8.19727 44.5078V43.0605C8.19727 41.8066 8.41406 40.875 8.84766 40.2656C9.28125 39.6562 9.96094 39.3516 10.8867 39.3516C11.8047 39.3516 12.4805 39.6465 12.9141 40.2363C13.3477 40.8223 13.5703 41.7285 13.582 42.9551V44.3613ZM12.498 42.8789C12.498 41.9609 12.3691 41.293 12.1113 40.875C11.8535 40.4531 11.4453 40.2422 10.8867 40.2422C10.332 40.2422 9.92773 40.4512 9.67383 40.8691C9.41992 41.2871 9.28906 41.9297 9.28125 42.7969V44.5312C9.28125 45.4531 9.41406 46.1348 9.67969 46.5762C9.94922 47.0137 10.3555 47.2324 10.8984 47.2324C11.4336 47.2324 11.8301 47.0254 12.0879 46.6113C12.3496 46.1973 12.4863 45.5449 12.498 44.6543V42.8789ZM20.3203 44.3613C20.3203 45.6309 20.1035 46.5742 19.6699 47.1914C19.2363 47.8086 18.5586 48.1172 17.6367 48.1172C16.7266 48.1172 16.0527 47.8164 15.6152 47.2148C15.1777 46.6094 14.9512 45.707 14.9355 44.5078V43.0605C14.9355 41.8066 15.1523 40.875 15.5859 40.2656C16.0195 39.6562 16.6992 39.3516 17.625 39.3516C18.543 39.3516 19.2188 39.6465 19.6523 40.2363C20.0859 40.8223 20.3086 41.7285 20.3203 42.9551V44.3613ZM19.2363 42.8789C19.2363 41.9609 19.1074 41.293 18.8496 40.875C18.5918 40.4531 18.1836 40.2422 17.625 40.2422C17.0703 40.2422 16.666 40.4512 16.4121 40.8691C16.1582 41.2871 16.0273 41.9297 16.0195 42.7969V44.5312C16.0195 45.4531 16.1523 46.1348 16.418 46.5762C16.6875 47.0137 17.0938 47.2324 17.6367 47.2324C18.1719 47.2324 18.5684 47.0254 18.8262 46.6113C19.0879 46.1973 19.2246 45.5449 19.2363 44.6543V42.8789Z" fill="#6F7A9F" fill-opacity="0.7"/>
<path d="M5.05664 142H3.9668V134.775L1.78125 135.578V134.594L4.88672 133.428H5.05664V142ZM13.582 138.361C13.582 139.631 13.3652 140.574 12.9316 141.191C12.498 141.809 11.8203 142.117 10.8984 142.117C9.98828 142.117 9.31445 141.816 8.87695 141.215C8.43945 140.609 8.21289 139.707 8.19727 138.508V137.061C8.19727 135.807 8.41406 134.875 8.84766 134.266C9.28125 133.656 9.96094 133.352 10.8867 133.352C11.8047 133.352 12.4805 133.646 12.9141 134.236C13.3477 134.822 13.5703 135.729 13.582 136.955V138.361ZM12.498 136.879C12.498 135.961 12.3691 135.293 12.1113 134.875C11.8535 134.453 11.4453 134.242 10.8867 134.242C10.332 134.242 9.92773 134.451 9.67383 134.869C9.41992 135.287 9.28906 135.93 9.28125 136.797V138.531C9.28125 139.453 9.41406 140.135 9.67969 140.576C9.94922 141.014 10.3555 141.232 10.8984 141.232C11.4336 141.232 11.8301 141.025 12.0879 140.611C12.3496 140.197 12.4863 139.545 12.498 138.654V136.879ZM20.3203 138.361C20.3203 139.631 20.1035 140.574 19.6699 141.191C19.2363 141.809 18.5586 142.117 17.6367 142.117C16.7266 142.117 16.0527 141.816 15.6152 141.215C15.1777 140.609 14.9512 139.707 14.9355 138.508V137.061C14.9355 135.807 15.1523 134.875 15.5859 134.266C16.0195 133.656 16.6992 133.352 17.625 133.352C18.543 133.352 19.2188 133.646 19.6523 134.236C20.0859 134.822 20.3086 135.729 20.3203 136.955V138.361ZM19.2363 136.879C19.2363 135.961 19.1074 135.293 18.8496 134.875C18.5918 134.453 18.1836 134.242 17.625 134.242C17.0703 134.242 16.666 134.451 16.4121 134.869C16.1582 135.287 16.0273 135.93 16.0195 136.797V138.531C16.0195 139.453 16.1523 140.135 16.418 140.576C16.6875 141.014 17.0938 141.232 17.6367 141.232C18.1719 141.232 18.5684 141.025 18.8262 140.611C19.0879 140.197 19.2246 139.545 19.2363 138.654V136.879Z" fill="#6F7A9F" fill-opacity="0.7"/>
<path d="M20.3203 185.361C20.3203 186.631 20.1035 187.574 19.6699 188.191C19.2363 188.809 18.5586 189.117 17.6367 189.117C16.7266 189.117 16.0527 188.816 15.6152 188.215C15.1777 187.609 14.9512 186.707 14.9355 185.508V184.061C14.9355 182.807 15.1523 181.875 15.5859 181.266C16.0195 180.656 16.6992 180.352 17.625 180.352C18.543 180.352 19.2188 180.646 19.6523 181.236C20.0859 181.822 20.3086 182.729 20.3203 183.955V185.361ZM19.2363 183.879C19.2363 182.961 19.1074 182.293 18.8496 181.875C18.5918 181.453 18.1836 181.242 17.625 181.242C17.0703 181.242 16.666 181.451 16.4121 181.869C16.1582 182.287 16.0273 182.93 16.0195 183.797V185.531C16.0195 186.453 16.1523 187.135 16.418 187.576C16.6875 188.014 17.0938 188.232 17.6367 188.232C18.1719 188.232 18.5684 188.025 18.8262 187.611C19.0879 187.197 19.2246 186.545 19.2363 185.654V183.879Z" fill="#6F7A9F" fill-opacity="0.7"/>
<circle cx="437" cy="261" r="5" fill="#43C385"/>
<path d="M454.563 265H453.251V255.047H454.563V265ZM457.968 257.604L458.009 258.533C458.574 257.822 459.312 257.467 460.224 257.467C461.787 257.467 462.575 258.349 462.589 260.112V265H461.324V260.105C461.32 259.572 461.197 259.178 460.955 258.923C460.718 258.668 460.347 258.54 459.841 258.54C459.431 258.54 459.071 258.649 458.761 258.868C458.451 259.087 458.209 259.374 458.036 259.729V265H456.771V257.604H457.968ZM465.118 265V258.581H463.949V257.604H465.118V256.845C465.118 256.052 465.33 255.439 465.754 255.006C466.178 254.573 466.777 254.356 467.552 254.356C467.843 254.356 468.133 254.395 468.42 254.473L468.352 255.498C468.137 255.457 467.91 255.437 467.668 255.437C467.258 255.437 466.941 255.557 466.718 255.799C466.494 256.036 466.383 256.378 466.383 256.824V257.604H467.962V258.581H466.383V265H465.118ZM469.028 261.233C469.028 260.509 469.17 259.857 469.452 259.278C469.739 258.7 470.136 258.253 470.642 257.938C471.152 257.624 471.733 257.467 472.385 257.467C473.392 257.467 474.205 257.815 474.825 258.513C475.45 259.21 475.762 260.137 475.762 261.295V261.384C475.762 262.104 475.623 262.751 475.345 263.325C475.071 263.895 474.677 264.339 474.162 264.658C473.652 264.977 473.064 265.137 472.398 265.137C471.396 265.137 470.582 264.788 469.958 264.091C469.338 263.394 469.028 262.471 469.028 261.322V261.233ZM470.3 261.384C470.3 262.204 470.489 262.863 470.867 263.359C471.25 263.856 471.76 264.104 472.398 264.104C473.041 264.104 473.551 263.854 473.93 263.353C474.308 262.847 474.497 262.14 474.497 261.233C474.497 260.422 474.303 259.766 473.916 259.265C473.533 258.759 473.023 258.506 472.385 258.506C471.76 258.506 471.257 258.754 470.874 259.251C470.491 259.748 470.3 260.459 470.3 261.384ZM480.923 258.738C480.731 258.706 480.524 258.69 480.301 258.69C479.471 258.69 478.909 259.044 478.612 259.75V265H477.348V257.604H478.578L478.599 258.458C479.013 257.797 479.601 257.467 480.362 257.467C480.608 257.467 480.795 257.499 480.923 257.562V258.738ZM483.281 257.604L483.315 258.424C483.858 257.786 484.589 257.467 485.51 257.467C486.544 257.467 487.248 257.863 487.622 258.656C487.868 258.301 488.187 258.014 488.579 257.795C488.976 257.576 489.443 257.467 489.98 257.467C491.603 257.467 492.428 258.326 492.455 260.044V265H491.19V260.119C491.19 259.59 491.07 259.196 490.828 258.937C490.587 258.672 490.181 258.54 489.611 258.54C489.142 258.54 488.752 258.681 488.442 258.964C488.132 259.242 487.952 259.618 487.902 260.092V265H486.631V260.153C486.631 259.078 486.104 258.54 485.052 258.54C484.222 258.54 483.655 258.893 483.35 259.6V265H482.085V257.604H483.281ZM498.936 265C498.863 264.854 498.803 264.594 498.758 264.221C498.17 264.831 497.468 265.137 496.652 265.137C495.923 265.137 495.324 264.932 494.854 264.521C494.39 264.107 494.157 263.583 494.157 262.949C494.157 262.179 494.449 261.582 495.032 261.158C495.62 260.73 496.445 260.516 497.507 260.516H498.737V259.935C498.737 259.493 498.605 259.142 498.341 258.882C498.076 258.618 497.687 258.485 497.172 258.485C496.721 258.485 496.342 258.599 496.037 258.827C495.732 259.055 495.579 259.331 495.579 259.654H494.308C494.308 259.285 494.438 258.93 494.697 258.588C494.962 258.242 495.317 257.968 495.764 257.768C496.215 257.567 496.709 257.467 497.247 257.467C498.099 257.467 498.767 257.681 499.25 258.109C499.733 258.533 499.984 259.119 500.002 259.866V263.271C500.002 263.95 500.089 264.49 500.262 264.891V265H498.936ZM496.837 264.036C497.233 264.036 497.609 263.934 497.965 263.729C498.32 263.523 498.578 263.257 498.737 262.929V261.411H497.746C496.197 261.411 495.422 261.865 495.422 262.771C495.422 263.168 495.554 263.478 495.818 263.701C496.083 263.924 496.422 264.036 496.837 264.036ZM503.7 255.812V257.604H505.081V258.581H503.7V263.168C503.7 263.464 503.762 263.688 503.885 263.838C504.008 263.984 504.217 264.057 504.514 264.057C504.66 264.057 504.86 264.029 505.115 263.975V265C504.783 265.091 504.459 265.137 504.145 265.137C503.579 265.137 503.153 264.966 502.866 264.624C502.579 264.282 502.436 263.797 502.436 263.168V258.581H501.089V257.604H502.436V255.812H503.7ZM507.938 265H506.674V257.604H507.938V265ZM506.571 255.642C506.571 255.437 506.633 255.263 506.756 255.122C506.883 254.981 507.07 254.91 507.316 254.91C507.562 254.91 507.749 254.981 507.877 255.122C508.005 255.263 508.068 255.437 508.068 255.642C508.068 255.847 508.005 256.018 507.877 256.154C507.749 256.291 507.562 256.359 507.316 256.359C507.07 256.359 506.883 256.291 506.756 256.154C506.633 256.018 506.571 255.847 506.571 255.642ZM509.634 261.233C509.634 260.509 509.775 259.857 510.058 259.278C510.345 258.7 510.741 258.253 511.247 257.938C511.757 257.624 512.339 257.467 512.99 257.467C513.997 257.467 514.811 257.815 515.431 258.513C516.055 259.21 516.367 260.137 516.367 261.295V261.384C516.367 262.104 516.228 262.751 515.95 263.325C515.677 263.895 515.283 264.339 514.768 264.658C514.257 264.977 513.669 265.137 513.004 265.137C512.001 265.137 511.188 264.788 510.563 264.091C509.944 263.394 509.634 262.471 509.634 261.322V261.233ZM510.905 261.384C510.905 262.204 511.094 262.863 511.473 263.359C511.855 263.856 512.366 264.104 513.004 264.104C513.646 264.104 514.157 263.854 514.535 263.353C514.913 262.847 515.103 262.14 515.103 261.233C515.103 260.422 514.909 259.766 514.521 259.265C514.139 258.759 513.628 258.506 512.99 258.506C512.366 258.506 511.862 258.754 511.479 259.251C511.097 259.748 510.905 260.459 510.905 261.384ZM519.149 257.604L519.19 258.533C519.756 257.822 520.494 257.467 521.405 257.467C522.968 257.467 523.757 258.349 523.771 260.112V265H522.506V260.105C522.501 259.572 522.378 259.178 522.137 258.923C521.9 258.668 521.528 258.54 521.022 258.54C520.612 258.54 520.252 258.649 519.942 258.868C519.632 259.087 519.391 259.374 519.218 259.729V265H517.953V257.604H519.149Z" fill="#6F7A9F"/>
<circle cx="304" cy="261" r="5" fill="#A1E1C2"/>
<path d="M321.563 265H320.251V255.047H321.563V265ZM324.968 257.604L325.009 258.533C325.574 257.822 326.312 257.467 327.224 257.467C328.787 257.467 329.575 258.349 329.589 260.112V265H328.324V260.105C328.32 259.572 328.197 259.178 327.955 258.923C327.718 258.668 327.347 258.54 326.841 258.54C326.431 258.54 326.071 258.649 325.761 258.868C325.451 259.087 325.209 259.374 325.036 259.729V265H323.771V257.604H324.968ZM332.118 265V258.581H330.949V257.604H332.118V256.845C332.118 256.052 332.33 255.439 332.754 255.006C333.178 254.573 333.777 254.356 334.552 254.356C334.843 254.356 335.133 254.395 335.42 254.473L335.352 255.498C335.137 255.457 334.91 255.437 334.668 255.437C334.258 255.437 333.941 255.557 333.718 255.799C333.494 256.036 333.383 256.378 333.383 256.824V257.604H334.962V258.581H333.383V265H332.118ZM336.028 261.233C336.028 260.509 336.17 259.857 336.452 259.278C336.739 258.7 337.136 258.253 337.642 257.938C338.152 257.624 338.733 257.467 339.385 257.467C340.392 257.467 341.205 257.815 341.825 258.513C342.45 259.21 342.762 260.137 342.762 261.295V261.384C342.762 262.104 342.623 262.751 342.345 263.325C342.071 263.895 341.677 264.339 341.162 264.658C340.652 264.977 340.064 265.137 339.398 265.137C338.396 265.137 337.582 264.788 336.958 264.091C336.338 263.394 336.028 262.471 336.028 261.322V261.233ZM337.3 261.384C337.3 262.204 337.489 262.863 337.867 263.359C338.25 263.856 338.76 264.104 339.398 264.104C340.041 264.104 340.551 263.854 340.93 263.353C341.308 262.847 341.497 262.14 341.497 261.233C341.497 260.422 341.303 259.766 340.916 259.265C340.533 258.759 340.023 258.506 339.385 258.506C338.76 258.506 338.257 258.754 337.874 259.251C337.491 259.748 337.3 260.459 337.3 261.384ZM347.923 258.738C347.731 258.706 347.524 258.69 347.301 258.69C346.471 258.69 345.909 259.044 345.612 259.75V265H344.348V257.604H345.578L345.599 258.458C346.013 257.797 346.601 257.467 347.362 257.467C347.608 257.467 347.795 257.499 347.923 257.562V258.738ZM350.281 257.604L350.315 258.424C350.858 257.786 351.589 257.467 352.51 257.467C353.544 257.467 354.248 257.863 354.622 258.656C354.868 258.301 355.187 258.014 355.579 257.795C355.976 257.576 356.443 257.467 356.98 257.467C358.603 257.467 359.428 258.326 359.455 260.044V265H358.19V260.119C358.19 259.59 358.07 259.196 357.828 258.937C357.587 258.672 357.181 258.54 356.611 258.54C356.142 258.54 355.752 258.681 355.442 258.964C355.132 259.242 354.952 259.618 354.902 260.092V265H353.631V260.153C353.631 259.078 353.104 258.54 352.052 258.54C351.222 258.54 350.655 258.893 350.35 259.6V265H349.085V257.604H350.281ZM365.936 265C365.863 264.854 365.803 264.594 365.758 264.221C365.17 264.831 364.468 265.137 363.652 265.137C362.923 265.137 362.324 264.932 361.854 264.521C361.39 264.107 361.157 263.583 361.157 262.949C361.157 262.179 361.449 261.582 362.032 261.158C362.62 260.73 363.445 260.516 364.507 260.516H365.737V259.935C365.737 259.493 365.605 259.142 365.341 258.882C365.076 258.618 364.687 258.485 364.172 258.485C363.721 258.485 363.342 258.599 363.037 258.827C362.732 259.055 362.579 259.331 362.579 259.654H361.308C361.308 259.285 361.438 258.93 361.697 258.588C361.962 258.242 362.317 257.968 362.764 257.768C363.215 257.567 363.709 257.467 364.247 257.467C365.099 257.467 365.767 257.681 366.25 258.109C366.733 258.533 366.984 259.119 367.002 259.866V263.271C367.002 263.95 367.089 264.49 367.262 264.891V265H365.936ZM363.837 264.036C364.233 264.036 364.609 263.934 364.965 263.729C365.32 263.523 365.578 263.257 365.737 262.929V261.411H364.746C363.197 261.411 362.422 261.865 362.422 262.771C362.422 263.168 362.554 263.478 362.818 263.701C363.083 263.924 363.422 264.036 363.837 264.036ZM370.7 255.812V257.604H372.081V258.581H370.7V263.168C370.7 263.464 370.762 263.688 370.885 263.838C371.008 263.984 371.217 264.057 371.514 264.057C371.66 264.057 371.86 264.029 372.115 263.975V265C371.783 265.091 371.459 265.137 371.145 265.137C370.579 265.137 370.153 264.966 369.866 264.624C369.579 264.282 369.436 263.797 369.436 263.168V258.581H368.089V257.604H369.436V255.812H370.7ZM374.938 265H373.674V257.604H374.938V265ZM373.571 255.642C373.571 255.437 373.633 255.263 373.756 255.122C373.883 254.981 374.07 254.91 374.316 254.91C374.562 254.91 374.749 254.981 374.877 255.122C375.005 255.263 375.068 255.437 375.068 255.642C375.068 255.847 375.005 256.018 374.877 256.154C374.749 256.291 374.562 256.359 374.316 256.359C374.07 256.359 373.883 256.291 373.756 256.154C373.633 256.018 373.571 255.847 373.571 255.642ZM376.634 261.233C376.634 260.509 376.775 259.857 377.058 259.278C377.345 258.7 377.741 258.253 378.247 257.938C378.757 257.624 379.339 257.467 379.99 257.467C380.997 257.467 381.811 257.815 382.431 258.513C383.055 259.21 383.367 260.137 383.367 261.295V261.384C383.367 262.104 383.228 262.751 382.95 263.325C382.677 263.895 382.283 264.339 381.768 264.658C381.257 264.977 380.669 265.137 380.004 265.137C379.001 265.137 378.188 264.788 377.563 264.091C376.944 263.394 376.634 262.471 376.634 261.322V261.233ZM377.905 261.384C377.905 262.204 378.094 262.863 378.473 263.359C378.855 263.856 379.366 264.104 380.004 264.104C380.646 264.104 381.157 263.854 381.535 263.353C381.913 262.847 382.103 262.14 382.103 261.233C382.103 260.422 381.909 259.766 381.521 259.265C381.139 258.759 380.628 258.506 379.99 258.506C379.366 258.506 378.862 258.754 378.479 259.251C378.097 259.748 377.905 260.459 377.905 261.384ZM386.149 257.604L386.19 258.533C386.756 257.822 387.494 257.467 388.405 257.467C389.968 257.467 390.757 258.349 390.771 260.112V265H389.506V260.105C389.501 259.572 389.378 259.178 389.137 258.923C388.9 258.668 388.528 258.54 388.022 258.54C387.612 258.54 387.252 258.649 386.942 258.868C386.632 259.087 386.391 259.374 386.218 259.729V265H384.953V257.604H386.149Z" fill="#6F7A9F"/>
<circle cx="171" cy="261" r="5" fill="#D9F3E7"/>
<path d="M188.563 265H187.251V255.047H188.563V265ZM191.968 257.604L192.009 258.533C192.574 257.822 193.312 257.467 194.224 257.467C195.787 257.467 196.575 258.349 196.589 260.112V265H195.324V260.105C195.32 259.572 195.197 259.178 194.955 258.923C194.718 258.668 194.347 258.54 193.841 258.54C193.431 258.54 193.071 258.649 192.761 258.868C192.451 259.087 192.209 259.374 192.036 259.729V265H190.771V257.604H191.968ZM199.118 265V258.581H197.949V257.604H199.118V256.845C199.118 256.052 199.33 255.439 199.754 255.006C200.178 254.573 200.777 254.356 201.552 254.356C201.843 254.356 202.133 254.395 202.42 254.473L202.352 255.498C202.137 255.457 201.91 255.437 201.668 255.437C201.258 255.437 200.941 255.557 200.718 255.799C200.494 256.036 200.383 256.378 200.383 256.824V257.604H201.962V258.581H200.383V265H199.118ZM203.028 261.233C203.028 260.509 203.17 259.857 203.452 259.278C203.739 258.7 204.136 258.253 204.642 257.938C205.152 257.624 205.733 257.467 206.385 257.467C207.392 257.467 208.205 257.815 208.825 258.513C209.45 259.21 209.762 260.137 209.762 261.295V261.384C209.762 262.104 209.623 262.751 209.345 263.325C209.071 263.895 208.677 264.339 208.162 264.658C207.652 264.977 207.064 265.137 206.398 265.137C205.396 265.137 204.582 264.788 203.958 264.091C203.338 263.394 203.028 262.471 203.028 261.322V261.233ZM204.3 261.384C204.3 262.204 204.489 262.863 204.867 263.359C205.25 263.856 205.76 264.104 206.398 264.104C207.041 264.104 207.551 263.854 207.93 263.353C208.308 262.847 208.497 262.14 208.497 261.233C208.497 260.422 208.303 259.766 207.916 259.265C207.533 258.759 207.023 258.506 206.385 258.506C205.76 258.506 205.257 258.754 204.874 259.251C204.491 259.748 204.3 260.459 204.3 261.384ZM214.923 258.738C214.731 258.706 214.524 258.69 214.301 258.69C213.471 258.69 212.909 259.044 212.612 259.75V265H211.348V257.604H212.578L212.599 258.458C213.013 257.797 213.601 257.467 214.362 257.467C214.608 257.467 214.795 257.499 214.923 257.562V258.738ZM217.281 257.604L217.315 258.424C217.858 257.786 218.589 257.467 219.51 257.467C220.544 257.467 221.248 257.863 221.622 258.656C221.868 258.301 222.187 258.014 222.579 257.795C222.976 257.576 223.443 257.467 223.98 257.467C225.603 257.467 226.428 258.326 226.455 260.044V265H225.19V260.119C225.19 259.59 225.07 259.196 224.828 258.937C224.587 258.672 224.181 258.54 223.611 258.54C223.142 258.54 222.752 258.681 222.442 258.964C222.132 259.242 221.952 259.618 221.902 260.092V265H220.631V260.153C220.631 259.078 220.104 258.54 219.052 258.54C218.222 258.54 217.655 258.893 217.35 259.6V265H216.085V257.604H217.281ZM232.936 265C232.863 264.854 232.803 264.594 232.758 264.221C232.17 264.831 231.468 265.137 230.652 265.137C229.923 265.137 229.324 264.932 228.854 264.521C228.39 264.107 228.157 263.583 228.157 262.949C228.157 262.179 228.449 261.582 229.032 261.158C229.62 260.73 230.445 260.516 231.507 260.516H232.737V259.935C232.737 259.493 232.605 259.142 232.341 258.882C232.076 258.618 231.687 258.485 231.172 258.485C230.721 258.485 230.342 258.599 230.037 258.827C229.732 259.055 229.579 259.331 229.579 259.654H228.308C228.308 259.285 228.438 258.93 228.697 258.588C228.962 258.242 229.317 257.968 229.764 257.768C230.215 257.567 230.709 257.467 231.247 257.467C232.099 257.467 232.767 257.681 233.25 258.109C233.733 258.533 233.984 259.119 234.002 259.866V263.271C234.002 263.95 234.089 264.49 234.262 264.891V265H232.936ZM230.837 264.036C231.233 264.036 231.609 263.934 231.965 263.729C232.32 263.523 232.578 263.257 232.737 262.929V261.411H231.746C230.197 261.411 229.422 261.865 229.422 262.771C229.422 263.168 229.554 263.478 229.818 263.701C230.083 263.924 230.422 264.036 230.837 264.036ZM237.7 255.812V257.604H239.081V258.581H237.7V263.168C237.7 263.464 237.762 263.688 237.885 263.838C238.008 263.984 238.217 264.057 238.514 264.057C238.66 264.057 238.86 264.029 239.115 263.975V265C238.783 265.091 238.459 265.137 238.145 265.137C237.579 265.137 237.153 264.966 236.866 264.624C236.579 264.282 236.436 263.797 236.436 263.168V258.581H235.089V257.604H236.436V255.812H237.7ZM241.938 265H240.674V257.604H241.938V265ZM240.571 255.642C240.571 255.437 240.633 255.263 240.756 255.122C240.883 254.981 241.07 254.91 241.316 254.91C241.562 254.91 241.749 254.981 241.877 255.122C242.005 255.263 242.068 255.437 242.068 255.642C242.068 255.847 242.005 256.018 241.877 256.154C241.749 256.291 241.562 256.359 241.316 256.359C241.07 256.359 240.883 256.291 240.756 256.154C240.633 256.018 240.571 255.847 240.571 255.642ZM243.634 261.233C243.634 260.509 243.775 259.857 244.058 259.278C244.345 258.7 244.741 258.253 245.247 257.938C245.757 257.624 246.339 257.467 246.99 257.467C247.997 257.467 248.811 257.815 249.431 258.513C250.055 259.21 250.367 260.137 250.367 261.295V261.384C250.367 262.104 250.228 262.751 249.95 263.325C249.677 263.895 249.283 264.339 248.768 264.658C248.257 264.977 247.669 265.137 247.004 265.137C246.001 265.137 245.188 264.788 244.563 264.091C243.944 263.394 243.634 262.471 243.634 261.322V261.233ZM244.905 261.384C244.905 262.204 245.094 262.863 245.473 263.359C245.855 263.856 246.366 264.104 247.004 264.104C247.646 264.104 248.157 263.854 248.535 263.353C248.913 262.847 249.103 262.14 249.103 261.233C249.103 260.422 248.909 259.766 248.521 259.265C248.139 258.759 247.628 258.506 246.99 258.506C246.366 258.506 245.862 258.754 245.479 259.251C245.097 259.748 244.905 260.459 244.905 261.384ZM253.149 257.604L253.19 258.533C253.756 257.822 254.494 257.467 255.405 257.467C256.968 257.467 257.757 258.349 257.771 260.112V265H256.506V260.105C256.501 259.572 256.378 259.178 256.137 258.923C255.9 258.668 255.528 258.54 255.022 258.54C254.612 258.54 254.252 258.649 253.942 258.868C253.632 259.087 253.391 259.374 253.218 259.729V265H251.953V257.604H253.149Z" fill="#6F7A9F"/>
<rect x="76" width="20" height="187" fill="#D9F3E7"/>
<rect x="96" y="48" width="20" height="139" fill="#A1E1C2"/>
<rect x="116" y="71" width="20" height="116" fill="#43C385"/>
<path d="M84.377 215.223C84.291 216.133 83.9551 216.844 83.3691 217.355C82.7832 217.863 82.0039 218.117 81.0312 218.117C80.3516 218.117 79.752 217.957 79.2324 217.637C78.7168 217.312 78.3184 216.854 78.0371 216.26C77.7559 215.666 77.6094 214.977 77.5977 214.191V213.395C77.5977 212.59 77.7402 211.881 78.0254 211.268C78.3105 210.654 78.7188 210.182 79.25 209.85C79.7852 209.518 80.4023 209.352 81.1016 209.352C82.043 209.352 82.8008 209.607 83.375 210.119C83.9492 210.631 84.2832 211.354 84.377 212.287H82.9004C82.8301 211.674 82.6504 211.232 82.3613 210.963C82.0762 210.689 81.6562 210.553 81.1016 210.553C80.457 210.553 79.9609 210.789 79.6133 211.262C79.2695 211.73 79.0938 212.42 79.0859 213.33V214.086C79.0859 215.008 79.25 215.711 79.5781 216.195C79.9102 216.68 80.3945 216.922 81.0312 216.922C81.6133 216.922 82.0508 216.791 82.3438 216.529C82.6367 216.268 82.8223 215.832 82.9004 215.223H84.377ZM93.7156 213.957C93.7156 214.793 93.5711 215.527 93.282 216.16C92.993 216.789 92.5789 217.273 92.0398 217.613C91.5047 217.949 90.8875 218.117 90.1883 218.117C89.4969 218.117 88.8797 217.949 88.3367 217.613C87.7977 217.273 87.3797 216.791 87.0828 216.166C86.7898 215.541 86.6414 214.82 86.6375 214.004V213.523C86.6375 212.691 86.784 211.957 87.077 211.32C87.3738 210.684 87.7898 210.197 88.325 209.861C88.8641 209.521 89.4812 209.352 90.1766 209.352C90.8719 209.352 91.4871 209.52 92.0223 209.855C92.5613 210.188 92.9773 210.668 93.2703 211.297C93.5633 211.922 93.7117 212.65 93.7156 213.482V213.957ZM92.2332 213.512C92.2332 212.566 92.0535 211.842 91.6941 211.338C91.3387 210.834 90.8328 210.582 90.1766 210.582C89.5359 210.582 89.034 210.834 88.6707 211.338C88.3113 211.838 88.1277 212.547 88.1199 213.465V213.957C88.1199 214.895 88.3016 215.619 88.6648 216.131C89.032 216.643 89.5398 216.898 90.1883 216.898C90.8445 216.898 91.3484 216.648 91.7 216.148C92.0555 215.648 92.2332 214.918 92.2332 213.957V213.512ZM97.8746 216.816H101.748V218H96.3922V209.469H97.8746V216.816ZM110.184 209.469V215.17C110.184 216.076 109.893 216.795 109.311 217.326C108.733 217.854 107.961 218.117 106.996 218.117C106.02 218.117 105.245 217.857 104.67 217.338C104.096 216.814 103.809 216.09 103.809 215.164V209.469H105.286V215.176C105.286 215.746 105.43 216.182 105.719 216.482C106.008 216.783 106.434 216.934 106.996 216.934C108.137 216.934 108.707 216.332 108.707 215.129V209.469H110.184ZM114.894 209.469L117.355 216.008L119.81 209.469H121.726V218H120.249V215.188L120.396 211.426L117.876 218H116.816L114.302 211.432L114.448 215.188V218H112.972V209.469H114.894ZM131.451 218H129.969L126.166 211.947V218H124.684V209.469H126.166L129.98 215.545V209.469H131.451V218Z" fill="#6F7A9F"/>
<rect x="176" y="68" width="20" height="119" fill="#D9F3E7"/>
<rect x="196" y="85" width="20" height="102" fill="#A1E1C2"/>
<rect x="216" y="119" width="20" height="68" fill="#43C385"/>
<path d="M185.377 215.223C185.291 216.133 184.955 216.844 184.369 217.355C183.783 217.863 183.004 218.117 182.031 218.117C181.352 218.117 180.752 217.957 180.232 217.637C179.717 217.312 179.318 216.854 179.037 216.26C178.756 215.666 178.609 214.977 178.598 214.191V213.395C178.598 212.59 178.74 211.881 179.025 211.268C179.311 210.654 179.719 210.182 180.25 209.85C180.785 209.518 181.402 209.352 182.102 209.352C183.043 209.352 183.801 209.607 184.375 210.119C184.949 210.631 185.283 211.354 185.377 212.287H183.9C183.83 211.674 183.65 211.232 183.361 210.963C183.076 210.689 182.656 210.553 182.102 210.553C181.457 210.553 180.961 210.789 180.613 211.262C180.27 211.73 180.094 212.42 180.086 213.33V214.086C180.086 215.008 180.25 215.711 180.578 216.195C180.91 216.68 181.395 216.922 182.031 216.922C182.613 216.922 183.051 216.791 183.344 216.529C183.637 216.268 183.822 215.832 183.9 215.223H185.377ZM194.716 213.957C194.716 214.793 194.571 215.527 194.282 216.16C193.993 216.789 193.579 217.273 193.04 217.613C192.505 217.949 191.887 218.117 191.188 218.117C190.497 218.117 189.88 217.949 189.337 217.613C188.798 217.273 188.38 216.791 188.083 216.166C187.79 215.541 187.641 214.82 187.637 214.004V213.523C187.637 212.691 187.784 211.957 188.077 211.32C188.374 210.684 188.79 210.197 189.325 209.861C189.864 209.521 190.481 209.352 191.177 209.352C191.872 209.352 192.487 209.52 193.022 209.855C193.561 210.188 193.977 210.668 194.27 211.297C194.563 211.922 194.712 212.65 194.716 213.482V213.957ZM193.233 213.512C193.233 212.566 193.054 211.842 192.694 211.338C192.339 210.834 191.833 210.582 191.177 210.582C190.536 210.582 190.034 210.834 189.671 211.338C189.311 211.838 189.128 212.547 189.12 213.465V213.957C189.12 214.895 189.302 215.619 189.665 216.131C190.032 216.643 190.54 216.898 191.188 216.898C191.845 216.898 192.348 216.648 192.7 216.148C193.055 215.648 193.233 214.918 193.233 213.957V213.512ZM198.875 216.816H202.748V218H197.392V209.469H198.875V216.816ZM211.184 209.469V215.17C211.184 216.076 210.893 216.795 210.311 217.326C209.733 217.854 208.961 218.117 207.996 218.117C207.02 218.117 206.245 217.857 205.67 217.338C205.096 216.814 204.809 216.09 204.809 215.164V209.469H206.286V215.176C206.286 215.746 206.43 216.182 206.719 216.482C207.008 216.783 207.434 216.934 207.996 216.934C209.137 216.934 209.707 216.332 209.707 215.129V209.469H211.184ZM215.894 209.469L218.355 216.008L220.81 209.469H222.726V218H221.249V215.188L221.396 211.426L218.876 218H217.816L215.302 211.432L215.448 215.188V218H213.972V209.469H215.894ZM232.451 218H230.969L227.166 211.947V218H225.684V209.469H227.166L230.98 215.545V209.469H232.451V218Z" fill="#6F7A9F"/>
<rect x="476" y="68" width="20" height="119" fill="#D9F3E7"/>
<rect x="496" y="85" width="20" height="102" fill="#A1E1C2"/>
<rect x="516" y="119" width="20" height="68" fill="#43C385"/>
<path d="M485.377 215.223C485.291 216.133 484.955 216.844 484.369 217.355C483.783 217.863 483.004 218.117 482.031 218.117C481.352 218.117 480.752 217.957 480.232 217.637C479.717 217.312 479.318 216.854 479.037 216.26C478.756 215.666 478.609 214.977 478.598 214.191V213.395C478.598 212.59 478.74 211.881 479.025 211.268C479.311 210.654 479.719 210.182 480.25 209.85C480.785 209.518 481.402 209.352 482.102 209.352C483.043 209.352 483.801 209.607 484.375 210.119C484.949 210.631 485.283 211.354 485.377 212.287H483.9C483.83 211.674 483.65 211.232 483.361 210.963C483.076 210.689 482.656 210.553 482.102 210.553C481.457 210.553 480.961 210.789 480.613 211.262C480.27 211.73 480.094 212.42 480.086 213.33V214.086C480.086 215.008 480.25 215.711 480.578 216.195C480.91 216.68 481.395 216.922 482.031 216.922C482.613 216.922 483.051 216.791 483.344 216.529C483.637 216.268 483.822 215.832 483.9 215.223H485.377ZM494.716 213.957C494.716 214.793 494.571 215.527 494.282 216.16C493.993 216.789 493.579 217.273 493.04 217.613C492.505 217.949 491.887 218.117 491.188 218.117C490.497 218.117 489.88 217.949 489.337 217.613C488.798 217.273 488.38 216.791 488.083 216.166C487.79 215.541 487.641 214.82 487.637 214.004V213.523C487.637 212.691 487.784 211.957 488.077 211.32C488.374 210.684 488.79 210.197 489.325 209.861C489.864 209.521 490.481 209.352 491.177 209.352C491.872 209.352 492.487 209.52 493.022 209.855C493.561 210.188 493.977 210.668 494.27 211.297C494.563 211.922 494.712 212.65 494.716 213.482V213.957ZM493.233 213.512C493.233 212.566 493.054 211.842 492.694 211.338C492.339 210.834 491.833 210.582 491.177 210.582C490.536 210.582 490.034 210.834 489.671 211.338C489.311 211.838 489.128 212.547 489.12 213.465V213.957C489.12 214.895 489.302 215.619 489.665 216.131C490.032 216.643 490.54 216.898 491.188 216.898C491.845 216.898 492.348 216.648 492.7 216.148C493.055 215.648 493.233 214.918 493.233 213.957V213.512ZM498.875 216.816H502.748V218H497.392V209.469H498.875V216.816ZM511.184 209.469V215.17C511.184 216.076 510.893 216.795 510.311 217.326C509.733 217.854 508.961 218.117 507.996 218.117C507.02 218.117 506.245 217.857 505.67 217.338C505.096 216.814 504.809 216.09 504.809 215.164V209.469H506.286V215.176C506.286 215.746 506.43 216.182 506.719 216.482C507.008 216.783 507.434 216.934 507.996 216.934C509.137 216.934 509.707 216.332 509.707 215.129V209.469H511.184ZM515.894 209.469L518.355 216.008L520.81 209.469H522.726V218H521.249V215.188L521.396 211.426L518.876 218H517.816L515.302 211.432L515.448 215.188V218H513.972V209.469H515.894ZM532.451 218H530.969L527.166 211.947V218H525.684V209.469H527.166L530.98 215.545V209.469H532.451V218Z" fill="#6F7A9F"/>
<rect x="276" y="16" width="20" height="171" fill="#D9F3E7"/>
<rect x="296" y="87" width="20" height="100" fill="#A1E1C2"/>
<rect x="316" y="100" width="20" height="87" fill="#43C385"/>
<path d="M285.377 215.223C285.291 216.133 284.955 216.844 284.369 217.355C283.783 217.863 283.004 218.117 282.031 218.117C281.352 218.117 280.752 217.957 280.232 217.637C279.717 217.312 279.318 216.854 279.037 216.26C278.756 215.666 278.609 214.977 278.598 214.191V213.395C278.598 212.59 278.74 211.881 279.025 211.268C279.311 210.654 279.719 210.182 280.25 209.85C280.785 209.518 281.402 209.352 282.102 209.352C283.043 209.352 283.801 209.607 284.375 210.119C284.949 210.631 285.283 211.354 285.377 212.287H283.9C283.83 211.674 283.65 211.232 283.361 210.963C283.076 210.689 282.656 210.553 282.102 210.553C281.457 210.553 280.961 210.789 280.613 211.262C280.27 211.73 280.094 212.42 280.086 213.33V214.086C280.086 215.008 280.25 215.711 280.578 216.195C280.91 216.68 281.395 216.922 282.031 216.922C282.613 216.922 283.051 216.791 283.344 216.529C283.637 216.268 283.822 215.832 283.9 215.223H285.377ZM294.716 213.957C294.716 214.793 294.571 215.527 294.282 216.16C293.993 216.789 293.579 217.273 293.04 217.613C292.505 217.949 291.887 218.117 291.188 218.117C290.497 218.117 289.88 217.949 289.337 217.613C288.798 217.273 288.38 216.791 288.083 216.166C287.79 215.541 287.641 214.82 287.637 214.004V213.523C287.637 212.691 287.784 211.957 288.077 211.32C288.374 210.684 288.79 210.197 289.325 209.861C289.864 209.521 290.481 209.352 291.177 209.352C291.872 209.352 292.487 209.52 293.022 209.855C293.561 210.188 293.977 210.668 294.27 211.297C294.563 211.922 294.712 212.65 294.716 213.482V213.957ZM293.233 213.512C293.233 212.566 293.054 211.842 292.694 211.338C292.339 210.834 291.833 210.582 291.177 210.582C290.536 210.582 290.034 210.834 289.671 211.338C289.311 211.838 289.128 212.547 289.12 213.465V213.957C289.12 214.895 289.302 215.619 289.665 216.131C290.032 216.643 290.54 216.898 291.188 216.898C291.845 216.898 292.348 216.648 292.7 216.148C293.055 215.648 293.233 214.918 293.233 213.957V213.512ZM298.875 216.816H302.748V218H297.392V209.469H298.875V216.816ZM311.184 209.469V215.17C311.184 216.076 310.893 216.795 310.311 217.326C309.733 217.854 308.961 218.117 307.996 218.117C307.02 218.117 306.245 217.857 305.67 217.338C305.096 216.814 304.809 216.09 304.809 215.164V209.469H306.286V215.176C306.286 215.746 306.43 216.182 306.719 216.482C307.008 216.783 307.434 216.934 307.996 216.934C309.137 216.934 309.707 216.332 309.707 215.129V209.469H311.184ZM315.894 209.469L318.355 216.008L320.81 209.469H322.726V218H321.249V215.188L321.396 211.426L318.876 218H317.816L315.302 211.432L315.448 215.188V218H313.972V209.469H315.894ZM332.451 218H330.969L327.166 211.947V218H325.684V209.469H327.166L330.98 215.545V209.469H332.451V218Z" fill="#6F7A9F"/>
<rect x="376" y="66" width="20" height="121" fill="#D9F3E7"/>
<rect x="396" y="102" width="20" height="85" fill="#A1E1C2"/>
<rect x="416" y="156" width="20" height="31" fill="#43C385"/>
<path d="M385.377 215.223C385.291 216.133 384.955 216.844 384.369 217.355C383.783 217.863 383.004 218.117 382.031 218.117C381.352 218.117 380.752 217.957 380.232 217.637C379.717 217.312 379.318 216.854 379.037 216.26C378.756 215.666 378.609 214.977 378.598 214.191V213.395C378.598 212.59 378.74 211.881 379.025 211.268C379.311 210.654 379.719 210.182 380.25 209.85C380.785 209.518 381.402 209.352 382.102 209.352C383.043 209.352 383.801 209.607 384.375 210.119C384.949 210.631 385.283 211.354 385.377 212.287H383.9C383.83 211.674 383.65 211.232 383.361 210.963C383.076 210.689 382.656 210.553 382.102 210.553C381.457 210.553 380.961 210.789 380.613 211.262C380.27 211.73 380.094 212.42 380.086 213.33V214.086C380.086 215.008 380.25 215.711 380.578 216.195C380.91 216.68 381.395 216.922 382.031 216.922C382.613 216.922 383.051 216.791 383.344 216.529C383.637 216.268 383.822 215.832 383.9 215.223H385.377ZM394.716 213.957C394.716 214.793 394.571 215.527 394.282 216.16C393.993 216.789 393.579 217.273 393.04 217.613C392.505 217.949 391.887 218.117 391.188 218.117C390.497 218.117 389.88 217.949 389.337 217.613C388.798 217.273 388.38 216.791 388.083 216.166C387.79 215.541 387.641 214.82 387.637 214.004V213.523C387.637 212.691 387.784 211.957 388.077 211.32C388.374 210.684 388.79 210.197 389.325 209.861C389.864 209.521 390.481 209.352 391.177 209.352C391.872 209.352 392.487 209.52 393.022 209.855C393.561 210.188 393.977 210.668 394.27 211.297C394.563 211.922 394.712 212.65 394.716 213.482V213.957ZM393.233 213.512C393.233 212.566 393.054 211.842 392.694 211.338C392.339 210.834 391.833 210.582 391.177 210.582C390.536 210.582 390.034 210.834 389.671 211.338C389.311 211.838 389.128 212.547 389.12 213.465V213.957C389.12 214.895 389.302 215.619 389.665 216.131C390.032 216.643 390.54 216.898 391.188 216.898C391.845 216.898 392.348 216.648 392.7 216.148C393.055 215.648 393.233 214.918 393.233 213.957V213.512ZM398.875 216.816H402.748V218H397.392V209.469H398.875V216.816ZM411.184 209.469V215.17C411.184 216.076 410.893 216.795 410.311 217.326C409.733 217.854 408.961 218.117 407.996 218.117C407.02 218.117 406.245 217.857 405.67 217.338C405.096 216.814 404.809 216.09 404.809 215.164V209.469H406.286V215.176C406.286 215.746 406.43 216.182 406.719 216.482C407.008 216.783 407.434 216.934 407.996 216.934C409.137 216.934 409.707 216.332 409.707 215.129V209.469H411.184ZM415.894 209.469L418.355 216.008L420.81 209.469H422.726V218H421.249V215.188L421.396 211.426L418.876 218H417.816L415.302 211.432L415.448 215.188V218H413.972V209.469H415.894ZM432.451 218H430.969L427.166 211.947V218H425.684V209.469H427.166L430.98 215.545V209.469H432.451V218Z" fill="#6F7A9F"/>
<rect x="616" y="184" width="20" height="3" fill="#E9EBF1"/>
<rect x="596" y="181" width="20" height="6" fill="#E9EBF1"/>
<rect x="576" y="178" width="20" height="9" fill="#E9EBF1"/>
<path d="M585.377 215.223C585.291 216.133 584.955 216.844 584.369 217.355C583.783 217.863 583.004 218.117 582.031 218.117C581.352 218.117 580.752 217.957 580.232 217.637C579.717 217.312 579.318 216.854 579.037 216.26C578.756 215.666 578.609 214.977 578.598 214.191V213.395C578.598 212.59 578.74 211.881 579.025 211.268C579.311 210.654 579.719 210.182 580.25 209.85C580.785 209.518 581.402 209.352 582.102 209.352C583.043 209.352 583.801 209.607 584.375 210.119C584.949 210.631 585.283 211.354 585.377 212.287H583.9C583.83 211.674 583.65 211.232 583.361 210.963C583.076 210.689 582.656 210.553 582.102 210.553C581.457 210.553 580.961 210.789 580.613 211.262C580.27 211.73 580.094 212.42 580.086 213.33V214.086C580.086 215.008 580.25 215.711 580.578 216.195C580.91 216.68 581.395 216.922 582.031 216.922C582.613 216.922 583.051 216.791 583.344 216.529C583.637 216.268 583.822 215.832 583.9 215.223H585.377ZM594.716 213.957C594.716 214.793 594.571 215.527 594.282 216.16C593.993 216.789 593.579 217.273 593.04 217.613C592.505 217.949 591.887 218.117 591.188 218.117C590.497 218.117 589.88 217.949 589.337 217.613C588.798 217.273 588.38 216.791 588.083 216.166C587.79 215.541 587.641 214.82 587.637 214.004V213.523C587.637 212.691 587.784 211.957 588.077 211.32C588.374 210.684 588.79 210.197 589.325 209.861C589.864 209.521 590.481 209.352 591.177 209.352C591.872 209.352 592.487 209.52 593.022 209.855C593.561 210.188 593.977 210.668 594.27 211.297C594.563 211.922 594.712 212.65 594.716 213.482V213.957ZM593.233 213.512C593.233 212.566 593.054 211.842 592.694 211.338C592.339 210.834 591.833 210.582 591.177 210.582C590.536 210.582 590.034 210.834 589.671 211.338C589.311 211.838 589.128 212.547 589.12 213.465V213.957C589.12 214.895 589.302 215.619 589.665 216.131C590.032 216.643 590.54 216.898 591.188 216.898C591.845 216.898 592.348 216.648 592.7 216.148C593.055 215.648 593.233 214.918 593.233 213.957V213.512ZM598.875 216.816H602.748V218H597.392V209.469H598.875V216.816ZM611.184 209.469V215.17C611.184 216.076 610.893 216.795 610.311 217.326C609.733 217.854 608.961 218.117 607.996 218.117C607.02 218.117 606.245 217.857 605.67 217.338C605.096 216.814 604.809 216.09 604.809 215.164V209.469H606.286V215.176C606.286 215.746 606.43 216.182 606.719 216.482C607.008 216.783 607.434 216.934 607.996 216.934C609.137 216.934 609.707 216.332 609.707 215.129V209.469H611.184ZM615.894 209.469L618.355 216.008L620.81 209.469H622.726V218H621.249V215.188L621.396 211.426L618.876 218H617.816L615.302 211.432L615.448 215.188V218H613.972V209.469H615.894ZM632.451 218H630.969L627.166 211.947V218H625.684V209.469H627.166L630.98 215.545V209.469H632.451V218Z" fill="#6F7A9F" fill-opacity="0.4"/>
</svg>
