<svg width="320" height="298" viewBox="0 0 320 298" fill="none" xmlns="http://www.w3.org/2000/svg">
<path d="M26.166 290.657H27.5469V291.689H26.166V294H24.8945V291.689H20.3623V290.944L24.8193 284.047H26.166V290.657ZM21.7979 290.657H24.8945V285.776L24.7441 286.05L21.7979 290.657ZM30.5273 288.408H31.4775C32.0745 288.399 32.5439 288.242 32.8857 287.937C33.2275 287.631 33.3984 287.219 33.3984 286.699C33.3984 285.533 32.8174 284.949 31.6553 284.949C31.1084 284.949 30.6709 285.106 30.3428 285.421C30.0192 285.731 29.8574 286.143 29.8574 286.658H28.5928C28.5928 285.87 28.8799 285.216 29.4541 284.696C30.0329 284.172 30.7666 283.91 31.6553 283.91C32.5941 283.91 33.3301 284.159 33.8633 284.655C34.3965 285.152 34.6631 285.842 34.6631 286.727C34.6631 287.16 34.5218 287.579 34.2393 287.984C33.9613 288.39 33.5807 288.693 33.0977 288.894C33.6445 289.067 34.0661 289.354 34.3623 289.755C34.6631 290.156 34.8135 290.646 34.8135 291.225C34.8135 292.118 34.5218 292.826 33.9385 293.351C33.3551 293.875 32.5964 294.137 31.6621 294.137C30.7279 294.137 29.9668 293.884 29.3789 293.378C28.7956 292.872 28.5039 292.204 28.5039 291.375H29.7754C29.7754 291.899 29.9463 292.318 30.2881 292.633C30.6299 292.947 31.0879 293.104 31.6621 293.104C32.2728 293.104 32.7399 292.945 33.0635 292.626C33.387 292.307 33.5488 291.849 33.5488 291.252C33.5488 290.673 33.3711 290.229 33.0156 289.919C32.6602 289.609 32.1475 289.45 31.4775 289.44H30.5273V288.408ZM45.8467 291.402H41.6768L40.7402 294H39.3867L43.1875 284.047H44.3359L48.1436 294H46.7969L45.8467 291.402ZM42.0732 290.322H45.457L43.7617 285.667L42.0732 290.322ZM50.6592 294H49.3945V283.5H50.6592V294ZM54.0635 294H52.7988V283.5H54.0635V294ZM59.1631 294.137C58.1605 294.137 57.3447 293.809 56.7158 293.152C56.0869 292.492 55.7725 291.61 55.7725 290.507V290.274C55.7725 289.541 55.9115 288.887 56.1895 288.312C56.472 287.734 56.8639 287.283 57.3652 286.959C57.8711 286.631 58.418 286.467 59.0059 286.467C59.9674 286.467 60.7148 286.784 61.248 287.417C61.7812 288.05 62.0479 288.957 62.0479 290.138V290.664H57.0371C57.0553 291.393 57.2673 291.983 57.6729 292.435C58.083 292.881 58.6025 293.104 59.2314 293.104C59.6781 293.104 60.0563 293.013 60.3662 292.831C60.6761 292.649 60.9473 292.407 61.1797 292.106L61.9521 292.708C61.3324 293.66 60.4027 294.137 59.1631 294.137ZM59.0059 287.506C58.4954 287.506 58.0671 287.693 57.7207 288.066C57.3743 288.436 57.1602 288.955 57.0781 289.625H60.7832V289.529C60.7467 288.887 60.5736 288.39 60.2637 288.039C59.9538 287.684 59.5345 287.506 59.0059 287.506ZM67.0928 287.738C66.9014 287.706 66.694 287.69 66.4707 287.69C65.6413 287.69 65.0785 288.044 64.7822 288.75V294H63.5176V286.604H64.748L64.7686 287.458C65.1833 286.797 65.7712 286.467 66.5322 286.467C66.7783 286.467 66.9652 286.499 67.0928 286.562V287.738ZM70.3193 284.812V286.604H71.7002V287.581H70.3193V292.168C70.3193 292.464 70.3809 292.688 70.5039 292.838C70.627 292.984 70.8366 293.057 71.1328 293.057C71.2786 293.057 71.4792 293.029 71.7344 292.975V294C71.4017 294.091 71.0781 294.137 70.7637 294.137C70.1986 294.137 69.7725 293.966 69.4854 293.624C69.1982 293.282 69.0547 292.797 69.0547 292.168V287.581H67.708V286.604H69.0547V284.812H70.3193ZM77.4902 292.038C77.4902 291.696 77.3604 291.432 77.1006 291.245C76.8454 291.054 76.3965 290.89 75.7539 290.753C75.1159 290.616 74.6077 290.452 74.2295 290.261C73.8558 290.069 73.5778 289.841 73.3955 289.577C73.2178 289.313 73.1289 288.998 73.1289 288.634C73.1289 288.028 73.3841 287.515 73.8945 287.096C74.4095 286.676 75.0658 286.467 75.8633 286.467C76.7018 286.467 77.3809 286.683 77.9004 287.116C78.4245 287.549 78.6865 288.103 78.6865 288.777H77.415C77.415 288.431 77.2669 288.132 76.9707 287.882C76.679 287.631 76.3099 287.506 75.8633 287.506C75.403 287.506 75.043 287.606 74.7832 287.807C74.5234 288.007 74.3936 288.269 74.3936 288.593C74.3936 288.898 74.5143 289.128 74.7559 289.283C74.9974 289.438 75.4326 289.586 76.0615 289.728C76.695 289.869 77.2077 290.037 77.5996 290.233C77.9915 290.429 78.2809 290.666 78.4678 290.944C78.6592 291.218 78.7549 291.553 78.7549 291.949C78.7549 292.61 78.4906 293.141 77.9619 293.542C77.4333 293.938 76.7474 294.137 75.9043 294.137C75.3118 294.137 74.7878 294.032 74.332 293.822C73.8763 293.613 73.5186 293.321 73.2588 292.947C73.0036 292.569 72.876 292.161 72.876 291.724H74.1406C74.1634 292.147 74.332 292.485 74.6465 292.735C74.9655 292.981 75.3848 293.104 75.9043 293.104C76.3828 293.104 76.7656 293.009 77.0527 292.817C77.3444 292.621 77.4902 292.362 77.4902 292.038Z" fill="#6F7A9F"/>
<path d="M267.349 294H260.827V293.091L264.272 289.263C264.783 288.684 265.134 288.215 265.325 287.854C265.521 287.49 265.619 287.114 265.619 286.727C265.619 286.207 265.462 285.781 265.147 285.448C264.833 285.116 264.414 284.949 263.89 284.949C263.261 284.949 262.771 285.129 262.42 285.489C262.074 285.845 261.9 286.341 261.9 286.979H260.636C260.636 286.063 260.93 285.323 261.518 284.758C262.11 284.193 262.901 283.91 263.89 283.91C264.815 283.91 265.546 284.154 266.084 284.642C266.622 285.125 266.891 285.77 266.891 286.576C266.891 287.556 266.266 288.723 265.018 290.076L262.352 292.968H267.349V294ZM274.027 290.657H275.408V291.689H274.027V294H272.756V291.689H268.224V290.944L272.681 284.047H274.027V290.657ZM269.659 290.657H272.756V285.776L272.605 286.05L269.659 290.657ZM285.847 291.402H281.677L280.74 294H279.387L283.188 284.047H284.336L288.144 294H286.797L285.847 291.402ZM282.073 290.322H285.457L283.762 285.667L282.073 290.322ZM290.659 294H289.395V283.5H290.659V294ZM294.063 294H292.799V283.5H294.063V294ZM299.163 294.137C298.16 294.137 297.345 293.809 296.716 293.152C296.087 292.492 295.772 291.61 295.772 290.507V290.274C295.772 289.541 295.911 288.887 296.189 288.312C296.472 287.734 296.864 287.283 297.365 286.959C297.871 286.631 298.418 286.467 299.006 286.467C299.967 286.467 300.715 286.784 301.248 287.417C301.781 288.05 302.048 288.957 302.048 290.138V290.664H297.037C297.055 291.393 297.267 291.983 297.673 292.435C298.083 292.881 298.603 293.104 299.231 293.104C299.678 293.104 300.056 293.013 300.366 292.831C300.676 292.649 300.947 292.407 301.18 292.106L301.952 292.708C301.332 293.66 300.403 294.137 299.163 294.137ZM299.006 287.506C298.495 287.506 298.067 287.693 297.721 288.066C297.374 288.436 297.16 288.955 297.078 289.625H300.783V289.529C300.747 288.887 300.574 288.39 300.264 288.039C299.954 287.684 299.535 287.506 299.006 287.506ZM307.093 287.738C306.901 287.706 306.694 287.69 306.471 287.69C305.641 287.69 305.078 288.044 304.782 288.75V294H303.518V286.604H304.748L304.769 287.458C305.183 286.797 305.771 286.467 306.532 286.467C306.778 286.467 306.965 286.499 307.093 286.562V287.738ZM310.319 284.812V286.604H311.7V287.581H310.319V292.168C310.319 292.464 310.381 292.688 310.504 292.838C310.627 292.984 310.837 293.057 311.133 293.057C311.279 293.057 311.479 293.029 311.734 292.975V294C311.402 294.091 311.078 294.137 310.764 294.137C310.199 294.137 309.772 293.966 309.485 293.624C309.198 293.282 309.055 292.797 309.055 292.168V287.581H307.708V286.604H309.055V284.812H310.319ZM317.49 292.038C317.49 291.696 317.36 291.432 317.101 291.245C316.845 291.054 316.396 290.89 315.754 290.753C315.116 290.616 314.608 290.452 314.229 290.261C313.856 290.069 313.578 289.841 313.396 289.577C313.218 289.313 313.129 288.998 313.129 288.634C313.129 288.028 313.384 287.515 313.895 287.096C314.41 286.676 315.066 286.467 315.863 286.467C316.702 286.467 317.381 286.683 317.9 287.116C318.424 287.549 318.687 288.103 318.687 288.777H317.415C317.415 288.431 317.267 288.132 316.971 287.882C316.679 287.631 316.31 287.506 315.863 287.506C315.403 287.506 315.043 287.606 314.783 287.807C314.523 288.007 314.394 288.269 314.394 288.593C314.394 288.898 314.514 289.128 314.756 289.283C314.997 289.438 315.433 289.586 316.062 289.728C316.695 289.869 317.208 290.037 317.6 290.233C317.992 290.429 318.281 290.666 318.468 290.944C318.659 291.218 318.755 291.553 318.755 291.949C318.755 292.61 318.491 293.141 317.962 293.542C317.433 293.938 316.747 294.137 315.904 294.137C315.312 294.137 314.788 294.032 314.332 293.822C313.876 293.613 313.519 293.321 313.259 292.947C313.004 292.569 312.876 292.161 312.876 291.724H314.141C314.163 292.147 314.332 292.485 314.646 292.735C314.965 292.981 315.385 293.104 315.904 293.104C316.383 293.104 316.766 293.009 317.053 292.817C317.344 292.621 317.49 292.362 317.49 292.038Z" fill="#6F7A9F"/>
<path d="M143.221 288.408H144.171C144.768 288.399 145.237 288.242 145.579 287.937C145.921 287.631 146.092 287.219 146.092 286.699C146.092 285.533 145.511 284.949 144.349 284.949C143.802 284.949 143.364 285.106 143.036 285.421C142.713 285.731 142.551 286.143 142.551 286.658H141.286C141.286 285.87 141.573 285.216 142.147 284.696C142.726 284.172 143.46 283.91 144.349 283.91C145.287 283.91 146.023 284.159 146.557 284.655C147.09 285.152 147.356 285.842 147.356 286.727C147.356 287.16 147.215 287.579 146.933 287.984C146.655 288.39 146.274 288.693 145.791 288.894C146.338 289.067 146.759 289.354 147.056 289.755C147.356 290.156 147.507 290.646 147.507 291.225C147.507 292.118 147.215 292.826 146.632 293.351C146.049 293.875 145.29 294.137 144.355 294.137C143.421 294.137 142.66 293.884 142.072 293.378C141.489 292.872 141.197 292.204 141.197 291.375H142.469C142.469 291.899 142.64 292.318 142.981 292.633C143.323 292.947 143.781 293.104 144.355 293.104C144.966 293.104 145.433 292.945 145.757 292.626C146.08 292.307 146.242 291.849 146.242 291.252C146.242 290.673 146.064 290.229 145.709 289.919C145.354 289.609 144.841 289.45 144.171 289.44H143.221V288.408ZM151.082 288.408H152.032C152.629 288.399 153.099 288.242 153.44 287.937C153.782 287.631 153.953 287.219 153.953 286.699C153.953 285.533 153.372 284.949 152.21 284.949C151.663 284.949 151.226 285.106 150.897 285.421C150.574 285.731 150.412 286.143 150.412 286.658H149.147C149.147 285.87 149.435 285.216 150.009 284.696C150.588 284.172 151.321 283.91 152.21 283.91C153.149 283.91 153.885 284.159 154.418 284.655C154.951 285.152 155.218 285.842 155.218 286.727C155.218 287.16 155.076 287.579 154.794 287.984C154.516 288.39 154.135 288.693 153.652 288.894C154.199 289.067 154.621 289.354 154.917 289.755C155.218 290.156 155.368 290.646 155.368 291.225C155.368 292.118 155.076 292.826 154.493 293.351C153.91 293.875 153.151 294.137 152.217 294.137C151.283 294.137 150.521 293.884 149.934 293.378C149.35 292.872 149.059 292.204 149.059 291.375H150.33C150.33 291.899 150.501 292.318 150.843 292.633C151.185 292.947 151.643 293.104 152.217 293.104C152.827 293.104 153.295 292.945 153.618 292.626C153.942 292.307 154.104 291.849 154.104 291.252C154.104 290.673 153.926 290.229 153.57 289.919C153.215 289.609 152.702 289.45 152.032 289.44H151.082V288.408ZM166.401 291.402H162.231L161.295 294H159.941L163.742 284.047H164.891L168.698 294H167.352L166.401 291.402ZM162.628 290.322H166.012L164.316 285.667L162.628 290.322ZM171.214 294H169.949V283.5H171.214V294ZM174.618 294H173.354V283.5H174.618V294ZM179.718 294.137C178.715 294.137 177.899 293.809 177.271 293.152C176.642 292.492 176.327 291.61 176.327 290.507V290.274C176.327 289.541 176.466 288.887 176.744 288.312C177.027 287.734 177.419 287.283 177.92 286.959C178.426 286.631 178.973 286.467 179.561 286.467C180.522 286.467 181.27 286.784 181.803 287.417C182.336 288.05 182.603 288.957 182.603 290.138V290.664H177.592C177.61 291.393 177.822 291.983 178.228 292.435C178.638 292.881 179.157 293.104 179.786 293.104C180.233 293.104 180.611 293.013 180.921 292.831C181.231 292.649 181.502 292.407 181.734 292.106L182.507 292.708C181.887 293.66 180.957 294.137 179.718 294.137ZM179.561 287.506C179.05 287.506 178.622 287.693 178.275 288.066C177.929 288.436 177.715 288.955 177.633 289.625H181.338V289.529C181.301 288.887 181.128 288.39 180.818 288.039C180.508 287.684 180.089 287.506 179.561 287.506ZM187.647 287.738C187.456 287.706 187.249 287.69 187.025 287.69C186.196 287.69 185.633 288.044 185.337 288.75V294H184.072V286.604H185.303L185.323 287.458C185.738 286.797 186.326 286.467 187.087 286.467C187.333 286.467 187.52 286.499 187.647 286.562V287.738ZM190.874 284.812V286.604H192.255V287.581H190.874V292.168C190.874 292.464 190.936 292.688 191.059 292.838C191.182 292.984 191.391 293.057 191.688 293.057C191.833 293.057 192.034 293.029 192.289 292.975V294C191.956 294.091 191.633 294.137 191.318 294.137C190.753 294.137 190.327 293.966 190.04 293.624C189.753 293.282 189.609 292.797 189.609 292.168V287.581H188.263V286.604H189.609V284.812H190.874ZM198.045 292.038C198.045 291.696 197.915 291.432 197.655 291.245C197.4 291.054 196.951 290.89 196.309 290.753C195.671 290.616 195.162 290.452 194.784 290.261C194.41 290.069 194.132 289.841 193.95 289.577C193.772 289.313 193.684 288.998 193.684 288.634C193.684 288.028 193.939 287.515 194.449 287.096C194.964 286.676 195.62 286.467 196.418 286.467C197.257 286.467 197.936 286.683 198.455 287.116C198.979 287.549 199.241 288.103 199.241 288.777H197.97C197.97 288.431 197.822 288.132 197.525 287.882C197.234 287.631 196.865 287.506 196.418 287.506C195.958 287.506 195.598 287.606 195.338 287.807C195.078 288.007 194.948 288.269 194.948 288.593C194.948 288.898 195.069 289.128 195.311 289.283C195.552 289.438 195.987 289.586 196.616 289.728C197.25 289.869 197.762 290.037 198.154 290.233C198.546 290.429 198.836 290.666 199.022 290.944C199.214 291.218 199.31 291.553 199.31 291.949C199.31 292.61 199.045 293.141 198.517 293.542C197.988 293.938 197.302 294.137 196.459 294.137C195.867 294.137 195.342 294.032 194.887 293.822C194.431 293.613 194.073 293.321 193.813 292.947C193.558 292.569 193.431 292.161 193.431 291.724H194.695C194.718 292.147 194.887 292.485 195.201 292.735C195.52 292.981 195.939 293.104 196.459 293.104C196.938 293.104 197.32 293.009 197.607 292.817C197.899 292.621 198.045 292.362 198.045 292.038Z" fill="#6F7A9F"/>
<circle cx="5" cy="289" r="5" fill="#43C386"/>
<circle cx="125" cy="289" r="5" fill="#A1E1C2"/>
<circle cx="245" cy="289" r="5" fill="#D9F3E7"/>
<circle cx="159.5" cy="115.5" r="115.5" fill="#EEEFF3"/>
<circle cx="159.5" cy="115.5" r="115.5" fill="#EEEFF3"/>
<circle cx="159.5" cy="115.5" r="115.5" fill="#F2F6FA"/>
<path d="M143.984 135H140.203V116.734L134.625 118.641V115.438L143.5 112.172H143.984V135ZM166.719 125.422C166.719 128.693 166.104 131.161 164.875 132.828C163.656 134.484 161.797 135.312 159.297 135.312C156.839 135.312 154.984 134.505 153.734 132.891C152.495 131.266 151.859 128.865 151.828 125.688V121.75C151.828 118.479 152.438 116.026 153.656 114.391C154.885 112.755 156.755 111.938 159.266 111.938C161.755 111.938 163.609 112.734 164.828 114.328C166.057 115.922 166.688 118.307 166.719 121.484V125.422ZM162.922 121.172C162.922 119.036 162.63 117.474 162.047 116.484C161.464 115.484 160.536 114.984 159.266 114.984C158.026 114.984 157.115 115.458 156.531 116.406C155.948 117.344 155.641 118.812 155.609 120.812V125.969C155.609 128.094 155.906 129.677 156.5 130.719C157.094 131.76 158.026 132.281 159.297 132.281C160.516 132.281 161.417 131.802 162 130.844C162.583 129.875 162.891 128.365 162.922 126.312V121.172ZM184.906 125.422C184.906 128.693 184.292 131.161 183.062 132.828C181.844 134.484 179.984 135.312 177.484 135.312C175.026 135.312 173.172 134.505 171.922 132.891C170.682 131.266 170.047 128.865 170.016 125.688V121.75C170.016 118.479 170.625 116.026 171.844 114.391C173.073 112.755 174.943 111.938 177.453 111.938C179.943 111.938 181.797 112.734 183.016 114.328C184.245 115.922 184.875 118.307 184.906 121.484V125.422ZM181.109 121.172C181.109 119.036 180.818 117.474 180.234 116.484C179.651 115.484 178.724 114.984 177.453 114.984C176.214 114.984 175.302 115.458 174.719 116.406C174.135 117.344 173.828 118.812 173.797 120.812V125.969C173.797 128.094 174.094 129.677 174.688 130.719C175.281 131.76 176.214 132.281 177.484 132.281C178.703 132.281 179.604 131.802 180.188 130.844C180.771 129.875 181.078 128.365 181.109 126.312V121.172Z" fill="#2E364F"/>
<path d="M143.498 92.127H140.299V101H138.993V92.127H135.801V91.0469H143.498V92.127ZM153.839 96.3447C153.839 97.32 153.675 98.1722 153.347 98.9014C153.019 99.626 152.554 100.18 151.953 100.562C151.351 100.945 150.649 101.137 149.847 101.137C149.063 101.137 148.368 100.945 147.762 100.562C147.156 100.175 146.685 99.626 146.347 98.915C146.015 98.1995 145.844 97.3724 145.835 96.4336V95.7158C145.835 94.7588 146.001 93.9134 146.334 93.1797C146.666 92.446 147.136 91.8854 147.742 91.498C148.352 91.1061 149.05 90.9102 149.834 90.9102C150.631 90.9102 151.333 91.1038 151.939 91.4912C152.55 91.874 153.019 92.4323 153.347 93.166C153.675 93.8952 153.839 94.7451 153.839 95.7158V96.3447ZM152.534 95.7021C152.534 94.5218 152.297 93.6172 151.823 92.9883C151.349 92.3548 150.686 92.0381 149.834 92.0381C149.004 92.0381 148.35 92.3548 147.872 92.9883C147.398 93.6172 147.154 94.4922 147.14 95.6133V96.3447C147.14 97.4886 147.379 98.3887 147.858 99.0449C148.341 99.6966 149.004 100.022 149.847 100.022C150.695 100.022 151.351 99.7148 151.816 99.0996C152.281 98.4798 152.52 97.5934 152.534 96.4404V95.7021ZM163.894 92.127H160.695V101H159.389V92.127H156.196V91.0469H163.894V92.127ZM171.72 98.4023H167.55L166.613 101H165.26L169.06 91.0469H170.209L174.016 101H172.67L171.72 98.4023ZM167.946 97.3223H171.33L169.635 92.667L167.946 97.3223ZM178.076 99.9268H182.792V101H176.756V91.0469H178.076V99.9268Z" fill="#6F7A9F"/>
<path d="M49.0939 110.945C47.8945 140.018 58.2105 168.39 77.8024 189.903C97.3944 211.416 124.681 224.333 153.739 225.85L154.8 205.512C131.098 204.275 108.84 193.738 92.8593 176.19C76.8781 158.642 68.4634 135.499 69.4418 111.785L49.0939 110.945Z" fill="#43C386"/>
<path d="M156.705 225.965C171.841 226.348 186.893 223.616 200.929 217.94C214.965 212.263 227.684 203.763 238.298 192.967C248.912 182.17 257.194 169.308 262.631 155.177C268.067 141.047 270.542 125.95 269.901 110.824C269.26 95.6971 265.518 80.8636 258.906 67.2435C252.294 53.6234 242.954 41.5074 231.465 31.6471C219.976 21.7869 206.583 14.3929 192.118 9.92377C177.652 5.45468 162.423 4.00591 147.374 5.66736L149.609 25.9129C161.884 24.5577 174.306 25.7395 186.105 29.3848C197.904 33.0301 208.828 39.0612 218.2 47.1038C227.571 55.1465 235.189 65.0292 240.582 76.1387C245.975 87.2481 249.028 99.3474 249.551 111.686C250.073 124.024 248.055 136.338 243.621 147.864C239.186 159.389 232.431 169.881 223.773 178.687C215.116 187.494 204.741 194.427 193.292 199.057C181.844 203.687 169.566 205.915 157.22 205.603L156.705 225.965Z" fill="#A1E1C2"/>
<path d="M143.851 6.11374C118.818 9.695 95.771 21.7539 78.5565 40.2776C61.3421 58.8014 51.0019 82.6691 49.2619 107.897L69.5788 109.298C70.9981 88.7198 79.4326 69.2509 93.4744 54.1411C107.516 39.0313 126.316 29.1949 146.735 26.2736L143.851 6.11374Z" fill="#D9F3E7"/>
</svg>
